<?xml version="1.0" encoding="utf-8"?>
<!-- Generator: Adobe Illustrator 26.3.0, SVG Export Plug-In . SVG Version: 6.00 Build 0)  -->
<!DOCTYPE svg PUBLIC "-//W3C//DTD SVG 1.1//EN" "http://www.w3.org/Graphics/SVG/1.1/DTD/svg11.dtd" [
	<!ENTITY st0 "fill:#9D9C9C;">
	<!ENTITY st1 "font-family:'PPNeueMontreal-Book';">
	<!ENTITY st2 "font-size:12.6512px;">
	<!ENTITY st3 "letter-spacing:12;">
]>
<svg version="1.1" id="Layer_1" xmlns="http://www.w3.org/2000/svg" xmlns:xlink="http://www.w3.org/1999/xlink" x="0px" y="0px"
	 width="600px" height="400px" viewBox="0 0 600 400" style="enable-background:new 0 0 600 400;" xml:space="preserve">
<g>
	<path style="&st0;" d="M206.7,284.1c-4.3,0-8.3,0-12.3,0c-7.6,0-15.1,0.1-22.7-0.1c-1.5,0-3.1-0.9-4.3-1.8c-2.2-1.8-4-4-6.1-5.8
		c-0.5-0.4-1.8-0.7-2.2-0.4c-12.7,8.7-27,8.9-41.5,8.2c-7.3-0.4-14.4-1.3-21.1-4.4c-14.1-6.4-21.4-18-23.9-32.8
		c-1-5.9-1-11.9-1.1-17.9c-0.1-22.3-0.2-44.5,0-66.8c0.1-12.5,3.7-23.7,12.6-32.9c6.7-6.9,15.1-11,24.5-12.4
		c11.7-1.8,23.4-1.7,35,0.7c18.3,3.9,31,17.5,33,36.3c1.1,10.4,1,20.9,1.1,31.4c0.1,16.4,0,32.7,0,49.1c0,0.9,0,1.8,0,3.4
		c-2-1.8-3.5-3.2-4.9-4.6c-6.7-6.5-13.4-12.9-20-19.5c-0.9-0.8-1.3-2.5-1.3-3.7c-0.1-16-0.1-31.9-0.1-47.9c0-6.5-1.9-12.2-7.5-16
		c-2.2-1.4-4.8-2.9-7.3-3c-8-0.3-16.1-0.6-24.1,0.2c-8.8,0.9-14.2,7.2-14.4,16.1c-0.4,13.5-0.3,27.1-0.3,40.6
		c0,12.4,0,24.8,0.1,37.2c0.1,12.7,7.2,19.9,20,20c6.1,0,12.2,0.2,18.2-0.6c9.6-1.2,14.8-7.3,15.3-17c0.2-4.7,0-9.5,0-14.3
		C156.5,227.4,202.7,276.1,206.7,284.1z"/>
	<path style="&st0;" d="M499.9,217.9c-5.8,0-11.6,0-17.5,0c-2.3,0-4.1-0.7-4.8-3.1c-0.7-2.4,0.4-4.6,2.8-5.3
		c1.3-0.4,2.6-0.4,3.9-0.5c10.1,0,20.1,0,30.2,0c0.5,0,1,0,1.5,0c1.6-0.1,3.5,0.1,3.5-2.2c0-2.3-1.8-2.2-3.4-2.2c-8.5,0-17,0-25.4,0
		c-1.5,0-3-0.1-4.5-0.3c-5.5-1-9.3-5.4-9.2-10.8c0.1-5.7,3.9-10.1,9.6-10.9c1.2-0.2,2.5-0.2,3.7-0.2c10.6,0,21.3,0,31.9,0
		c0.7,0,1.5,0,2.2,0.1c2.1,0.4,3.3,1.8,3.7,3.9c0.3,2-0.7,3.5-2.4,4.2c-1.3,0.5-2.7,0.8-4.1,0.8c-10.2,0.1-20.5,0-30.7,0.1
		c-0.7,0-1.3,0-2,0c-1.4,0.1-2.9,0.1-2.9,2c0,1.9,1.4,2.2,3,2.2c8.9,0,17.8,0,26.7,0c1.5,0,3,0.1,4.4,0.4c5.4,1.3,8.9,6.3,8.4,11.7
		c-0.5,5.5-4.9,9.8-10.5,10.2c-0.2,0-0.5,0-0.7,0C511.5,217.8,505.7,217.8,499.9,217.9C499.9,217.8,499.9,217.9,499.9,217.9z"/>
	<path style="&st0;" d="M210.3,217.8c-5.5,0-11,0-16.5,0c-0.9,0-1.8,0-2.7-0.2c-2-0.3-3.3-1.5-3.5-3.6c-0.2-2.2,0.5-3.8,2.6-4.5
		c1.3-0.4,2.8-0.6,4.2-0.6c10.3-0.1,20.6,0,30.9-0.1c0.9,0,1.9,0.1,2.7-0.3c0.7-0.3,1.5-1.3,1.5-1.9c-0.1-0.8-0.8-1.7-1.6-2.1
		c-0.7-0.4-1.8-0.2-2.7-0.2c-8.4,0-16.8,0.1-25.2-0.1c-2.6-0.1-5.4-0.6-7.6-1.8c-4.5-2.4-6.2-7.2-4.9-12.2c1.2-4.7,5.3-8,10.4-8.1
		c4.7-0.2,9.5-0.1,14.2-0.1c6.8,0,13.6,0,20.5,0c3.6,0,5.7,1.7,5.7,4.5c0.1,2.6-2.4,4.5-5.8,4.5c-10.6,0-21.1,0-31.7,0
		c-1,0-2.1-0.2-3,0.2c-0.7,0.3-1.7,1.2-1.6,1.8c0.1,0.8,0.9,1.7,1.6,2.1c0.7,0.4,1.8,0.2,2.7,0.2c9.1,0,18.1,0,27.2,0.1
		c4.5,0.1,7.9,2.3,9.9,6.4c1.9,4.1,1.4,8-1.3,11.5c-2.2,2.9-5.2,4.3-8.9,4.3C221.8,217.7,216.1,217.7,210.3,217.8
		C210.3,217.7,210.3,217.8,210.3,217.8z"/>
	<path style="&st0;" d="M363.6,201.7c0-3.5-0.1-7,0-10.5c0.1-5.7,3.4-8.9,9.1-8.9c9.6,0,19.1-0.1,28.7,0c8.5,0.1,14,5.9,13.4,14.2
		c-0.2,2.1-1.2,4.3-2.4,6.1c-1.3,1.9-1.5,3.3-0.1,5.1c0.8,1.1,1.6,2.4,2.2,3.6c1.1,2.3,0.5,4.4-1.6,5.6c-2,1.2-3.9,0.8-5.4-1.3
		c-1.3-1.7-2.4-3.6-3.5-5.5c-0.9-1.6-2.2-2.4-4-2.4c-8.3,0-16.6,0.1-24.9,0c-2,0-2.7,0.8-2.6,2.7c0.1,1,0,2-0.1,3
		c-0.4,2.5-2,4-4.3,4c-2.4,0-4.1-1.6-4.2-4.3c-0.1-3.2-0.1-6.3-0.1-9.5C363.6,203.1,363.6,202.4,363.6,201.7
		C363.6,201.7,363.6,201.7,363.6,201.7z M388.2,199.2C388.2,199.2,388.2,199.2,388.2,199.2c4.5,0,9,0,13.4,0c3.1,0,5-2,4.6-4.6
		c-0.3-2.3-1.9-3.5-4.6-3.5c-8,0-15.9,0-23.9,0c-6.1,0-5.4-0.5-5.5,5.5c-0.1,2.1,0.8,2.8,2.8,2.7
		C379.4,199.1,383.8,199.2,388.2,199.2z"/>
	<path style="&st0;" d="M330.2,217.6c-5,0-10,0.3-14.9-0.1c-6.9-0.4-12.7-6.4-13.1-13.4c-0.2-3.3-0.1-6.7,0.4-9.9
		c0.8-6.5,6.5-11.7,13.4-11.9c9.2-0.3,18.5-0.3,27.7,0c8,0.3,13.5,5.7,14.2,13.7c0.3,3,0.3,6,0,9c-0.6,6.7-6.1,12.1-13.1,12.5
		C339.9,217.8,335.1,217.6,330.2,217.6C330.2,217.6,330.2,217.6,330.2,217.6z M330.1,208.9C330.1,208.9,330.1,208.9,330.1,208.9
		c4.2,0,8.5,0.1,12.7,0c3.9-0.1,6.1-2.3,6.3-6.2c0.1-1.9,0.1-3.8,0-5.7c-0.3-3.4-2.4-5.6-5.8-5.7c-8.9-0.1-17.8-0.1-26.6,0
		c-3.2,0-5.2,2.1-5.5,5.3c-0.2,1.9-0.2,3.8-0.1,5.7c0.2,4.6,2.3,6.6,6.9,6.6C321.9,209,326,208.9,330.1,208.9z"/>
	<path style="&st0;" d="M268.1,182.2c5.1,0,10.1-0.1,15.2,0c5.9,0.2,10.6,3.8,12.2,9c1.7,5.5,0.1,11-4.6,14.1
		c-2.4,1.5-5.5,2.5-8.3,2.6c-8.7,0.3-17.5,0.2-26.2,0.1c-2.2,0-3.1,0.6-2.9,2.8c0.1,1.1,0,2.2-0.2,3.2c-0.5,2.4-2.2,3.8-4.6,3.7
		c-2.3-0.1-4-1.7-4.1-4.2c-0.1-2.9-0.1-5.8-0.1-8.7c0-4.6,0-9.1,0-13.7c0.1-5.5,3.3-8.9,8.8-8.9
		C258.3,182.1,263.2,182.2,268.1,182.2C268.1,182.2,268.1,182.2,268.1,182.2z M269.6,191.2c-3.6,0-7.1,0-10.7,0
		c-6.1,0.1-5.2-0.9-5.4,5.5c0,1.9,0.7,2.4,2.5,2.4c8.9-0.1,17.8,0,26.6,0c2.8,0,4.6-1.5,4.7-3.7c0.1-2.5-1.7-4.1-4.5-4.1
		C278.4,191.2,274,191.2,269.6,191.2z"/>
	<path style="&st0;" d="M442.3,202.9c0-3-0.1-6,0-9c0.1-2-0.6-2.8-2.7-2.8c-4.5,0.1-9,0.2-13.4-0.1c-1.6-0.1-3.6-1-4.5-2.3
		c-2-2.8,0.1-6.4,3.7-6.5c4.2-0.2,8.5-0.1,12.7,0c0.7,0,1.5,0.5,2.1,1.1c3.3,3.2,6.6,6.3,9.7,9.6c0.8,0.8,1.3,2.1,1.4,3.2
		c0.1,5.5,0.1,10.9,0,16.4c0,3.3-1.7,5.2-4.4,5.2c-2.6,0-4.3-1.7-4.5-4.9C442.2,209.5,442.4,206.2,442.3,202.9
		C442.3,202.9,442.3,202.9,442.3,202.9z"/>
	<path style="&st0;" d="M451.4,182.2c6.1,0,11.4-0.1,16.7,0c2.4,0.1,4.1,2,4.3,4.1c0.2,2.3-1.2,4.2-3.7,4.5c-2.5,0.3-5,0.3-7.5,0.3
		c-0.4,0-1-0.2-1.3-0.6C457.2,188,454.6,185.4,451.4,182.2z"/>
	<text transform="matrix(1 0 0 1 267.2014 237.2684)" style="&st0; &st1; &st2; &st3;">QUALITY WEAR</text>
</g>
</svg>
