<?xml version="1.0" encoding="UTF-8"?>
<svg id="uuid-c333a73a-db78-4e46-bb80-2824a6dc2655" data-name="Layer 1" xmlns="http://www.w3.org/2000/svg" width="289.1" height="113.1" viewBox="0 0 289.1 113.1">
  <path d="M141.7,0h17.6l-11.3,49h-17.6L141.7,0Z" style="fill: #b5b5b5;"/>
  <path d="M174.5,0h24l1,33.3L215.6,0h24.4l-11.4,49h-15.8l9.2-38.2-19.2,38.2h-13.2l-1.7-38.4-8.3,38.4h-16.3L174.5,0Z" style="fill: #b5b5b5;"/>
  <path d="M255,0h17.6l-8.7,37.8h25.3l-2.6,11.2h-42.8L255,0Z" style="fill: #b5b5b5;"/>
  <path d="M2.5,62.5H56l-2.6,11h-17.7l-8.8,38H9.4l8.8-38H0l2.5-11Z" style="fill: #b5b5b5;"/>
  <path d="M65.4,62.5h50.5l-2.5,10.9h-33.2l-1.9,8h31.7l-2.5,10.9h-31.7l-1.9,8.1h35.6l-2.6,11.1H54.1l11.3-49Z" style="fill: #b5b5b5;"/>
  <path d="M130.7,62.5h15.8l16.6,31,7.2-31h15.8l-11.4,49h-15.8l-16.4-30.8-6.9,30.8h-16.3l11.4-49Z" style="fill: #b5b5b5;"/>
  <path d="M201.3,62.5h17.6l-11.3,49h-17.6l11.3-49Z" style="fill: #b5b5b5;"/>
  <path d="M239.4,95.7c0,.6,.1,1.4,.4,2.2,.3,.8,.8,1.6,1.8,2.4,1.1,.8,2.4,1.3,3.9,1.6,1.5,.3,3,.4,4.4,.3,2.6,0,4.7-.6,6.1-1.4,1.4-.9,2.2-2.1,2.2-3.6s-.2-1.4-.5-1.8c-.3-.5-.9-.9-1.6-1.2-.7-.3-1.6-.7-2.6-1-1-.3-2.2-.6-3.5-1l-8.7-2.6c-.9-.3-1.9-.6-3-1-1.1-.4-2.1-.9-3.1-1.5-1-.6-2-1.3-2.8-2.2-.9-.9-1.6-1.9-2.2-3.2-.4-.8-.6-1.6-.8-2.4-.1-.8-.2-1.6-.2-2.3,0-3,.8-5.7,2.5-7.9,1.6-2.2,3.9-4,6.6-5.3,1.9-.9,4.2-1.6,6.9-2.1,2.7-.5,6.2-.8,10.6-.8s4.7,.1,6.9,.4c2.2,.3,4.4,.8,6.6,1.7,2.1,.8,3.8,1.8,5,2.9s2,2.2,2.6,3.3c.6,1.1,.9,2.2,1,3.3,.1,1.1,.2,2.1,.2,2.9l-15.8,1.2c.2-1.5-.4-2.7-1.9-3.6-1.5-.9-3.7-1.3-6.7-1.3s-4.6,.4-5.8,1.2c-1.2,.8-1.8,1.7-1.8,2.6s.2,1.1,.6,1.6c.4,.5,.9,.9,1.5,1.2,.6,.3,1.2,.6,1.9,.9,.7,.3,1.4,.5,2,.7l10.3,2.9c1.2,.4,2.4,.8,3.6,1.2,1.1,.4,2.2,.8,3.2,1.3,1,.5,1.9,1.1,2.6,1.7,.8,.7,1.5,1.5,2,2.5,1,1.8,1.5,3.9,1.5,6s-.1,2-.4,3.2c-.3,1.2-.8,2.5-1.6,3.8s-1.8,2.6-3.2,3.9c-1.3,1.3-3.1,2.4-5.2,3.5-2.4,1.2-5,2-7.8,2.4-2.8,.4-5.8,.7-9,.7s-5.7-.2-8-.6c-2.3-.4-4.3-.9-6-1.4-1.7-.6-3.1-1.2-4.2-1.8-1.1-.7-1.9-1.3-2.5-1.8-1-.9-1.7-1.8-2.3-2.8-.5-1-.9-1.9-1.2-2.8-.3-.9-.4-1.9-.5-2.8,0-.9,0-1.8,0-2.6l15.9-.7Z" style="fill: #b5b5b5;"/>
</svg>