<?xml version="1.0" encoding="utf-8"?>
<!-- Generator: Adobe Illustrator 26.3.0, SVG Export Plug-In . SVG Version: 6.00 Build 0)  -->
<svg version="1.1" id="Layer_1" xmlns="http://www.w3.org/2000/svg" xmlns:xlink="http://www.w3.org/1999/xlink" x="0px" y="0px"
	 viewBox="0 0 140 100" style="enable-background:new 0 0 140 100;" xml:space="preserve">
<style type="text/css">
	.st0{fill:#E84645;}
</style>
<g>
	<path class="st0" d="M121.4,15.9c-9.1-9.1-21.2-14.1-34.1-14.1s-25,5-34.1,14.1c-1.3,1.3-2.6,2.8-3.8,4.2c-1.3,1.7-2.5,3.4-3.6,5.2
		h4.7H51h24.3c6.6,0,12.8,2.6,17.4,7.2c4.7,4.7,7.2,10.9,7.2,17.4c0,13.6-11.1,24.7-24.7,24.7H51h-0.5h-4.7c1.1,1.8,2.3,3.6,3.6,5.2
		c1.2,1.5,2.5,2.9,3.8,4.2c9.4,9.4,21.8,14.1,34.1,14.1c12.4,0,24.7-4.7,34.1-14.1c9.1-9.1,14.1-21.2,14.1-34.1
		C135.5,37.1,130.5,25,121.4,15.9z"/>
	<g>
		<g>
			<path class="st0" d="M43.5,34.5h4.8L45.2,48h-4.8L43.5,34.5z"/>
			<path class="st0" d="M52.5,34.5h6.6l0.3,9.2l4.4-9.2h6.7L67.4,48h-4.4l2.5-10.5L60.3,48h-3.6l-0.5-10.6L53.9,48h-4.5L52.5,34.5z"
				/>
			<path class="st0" d="M74.7,34.5h4.8l-2.4,10.4h7L83.4,48H71.6L74.7,34.5z"/>
			<path class="st0" d="M5.1,52.2h14.7l-0.7,3h-4.9l-2.4,10.5H7l2.4-10.5h-5L5.1,52.2z"/>
			<path class="st0" d="M22.5,52.2h13.9l-0.7,3h-9.1l-0.5,2.2h8.7l-0.7,3h-8.7l-0.5,2.2h9.8l-0.7,3.1H19.4L22.5,52.2z"/>
			<path class="st0" d="M40.5,52.2h4.4l4.6,8.6l2-8.6h4.4l-3.1,13.5h-4.3l-4.5-8.5l-1.9,8.5h-4.5L40.5,52.2z"/>
			<path class="st0" d="M59.9,52.2h4.8l-3.1,13.5h-4.8L59.9,52.2z"/>
			<path class="st0" d="M70.4,61.4c0,0.2,0,0.4,0.1,0.6c0.1,0.2,0.2,0.4,0.5,0.7c0.3,0.2,0.7,0.4,1.1,0.4c0.4,0.1,0.8,0.1,1.2,0.1
				c0.7,0,1.3-0.2,1.7-0.4c0.4-0.2,0.6-0.6,0.6-1c0-0.2,0-0.4-0.1-0.5c-0.1-0.1-0.2-0.2-0.4-0.3c-0.2-0.1-0.4-0.2-0.7-0.3
				c-0.3-0.1-0.6-0.2-1-0.3L71,59.6c-0.3-0.1-0.5-0.2-0.8-0.3c-0.3-0.1-0.6-0.2-0.9-0.4c-0.3-0.2-0.5-0.4-0.8-0.6
				c-0.2-0.2-0.4-0.5-0.6-0.9c-0.1-0.2-0.2-0.4-0.2-0.7s-0.1-0.4-0.1-0.6c0-0.8,0.2-1.6,0.7-2.2c0.5-0.6,1.1-1.1,1.8-1.5
				c0.5-0.2,1.2-0.4,1.9-0.6c0.7-0.1,1.7-0.2,2.9-0.2c0.7,0,1.3,0,1.9,0.1c0.6,0.1,1.2,0.2,1.8,0.5c0.6,0.2,1,0.5,1.4,0.8
				s0.6,0.6,0.7,0.9c0.2,0.3,0.2,0.6,0.3,0.9c0,0.3,0,0.6,0,0.8l-4.3,0.3c0.1-0.4-0.1-0.7-0.5-1c-0.4-0.2-1-0.4-1.8-0.4
				c-0.7,0-1.3,0.1-1.6,0.3c-0.3,0.2-0.5,0.5-0.5,0.7c0,0.2,0.1,0.3,0.2,0.4c0.1,0.1,0.2,0.2,0.4,0.3c0.2,0.1,0.3,0.2,0.5,0.2
				c0.2,0.1,0.4,0.1,0.6,0.2l2.9,0.8c0.3,0.1,0.7,0.2,1,0.3c0.3,0.1,0.6,0.2,0.9,0.4c0.3,0.1,0.5,0.3,0.7,0.5s0.4,0.4,0.6,0.7
				c0.3,0.5,0.4,1.1,0.4,1.7c0,0.3,0,0.6-0.1,0.9c-0.1,0.3-0.2,0.7-0.4,1.1c-0.2,0.4-0.5,0.7-0.9,1.1c-0.4,0.4-0.8,0.7-1.4,1
				c-0.7,0.3-1.4,0.5-2.1,0.7c-0.8,0.1-1.6,0.2-2.5,0.2c-0.8,0-1.6-0.1-2.2-0.2c-0.6-0.1-1.2-0.2-1.7-0.4c-0.5-0.2-0.8-0.3-1.1-0.5
				c-0.3-0.2-0.5-0.3-0.7-0.5c-0.3-0.2-0.5-0.5-0.6-0.8c-0.1-0.3-0.3-0.5-0.3-0.8c-0.1-0.3-0.1-0.5-0.1-0.8c0-0.3,0-0.5,0-0.7
				L70.4,61.4z"/>
		</g>
	</g>
</g>
</svg>
