<?xml version="1.0" encoding="utf-8"?>
<svg fill="#666" version="1.1" id="Layer_1" xmlns="http://www.w3.org/2000/svg" xmlns:xlink="http://www.w3.org/1999/xlink" x="0px" y="0px"
	 viewBox="0 0 100 100" style="enable-background:new 0 0 100 100;" xml:space="preserve">
<style type="text/css">
	.st0{fill:#666;stroke:#666;stroke-miterlimit:10;}
</style>
<g> 
	<path d="M36.9,37.2c-0.6-1.1-1.4-2.3-2.1-3c-1-1-1.7-1.2-5.3-1.2H23v17.4c0,2.8,0.5,3.2,6.7,3.4v1h-19v-1c6.1-0.2,6.6-0.6,6.6-3.4
		V33h-6c-3.6,0-4.6,0.2-5.8,1.3c-0.8,0.7-1.3,1.6-2.2,2.9h-2c0.4-2.2,0.8-4.4,1-6.4H4c1,0.9,1.7,0.8,3.5,0.8h25.9
		c1.8,0,2.4-0.1,3.3-0.8h1.6c0,1.7,0.3,4.3,0.6,6.3L36.9,37.2z"/>
	<path d="M64.9,40.8c-2.4,0.1-2.8,0.5-3.9,1.4c-0.9,0.7-1.8,1.4-3,2.4c1.5,0.7,4.8,2.7,5.8,3.6l-0.2,0.2c-1.9-0.1-3.8-0.5-4.2-0.7
		c-0.4-0.3-2-1.1-3.1-1.7c-2.5,1.7-4.7,2.3-7.2,2.3c-4.4,0-6.8-1.7-6.8-3.3c0-1.7,1.8-2.3,5.1-3.4c-1.6-0.7-2.7-1.6-2.7-2.6
		c0-1.6,2.6-2.8,5.6-2.8c2.8,0,5.1,1,5.1,2.5c0,0.7-0.7,1.3-1.5,1.6c-0.6,0.3-1.7,0.6-2.9,1c1.1,0.5,3.9,1.7,6.1,2.9
		c0.8-0.6,1.5-1.2,2.1-2.1c0.6-0.8,0.4-1.1-2.1-1.2v-0.5h7.8V40.8z M49.9,46.9c2.3,0,3.7-0.4,5.5-1.6c-1.8-1-4.1-2.1-7.1-3.4
		c-2.4,0.8-3.1,1.6-3.1,2.5C45.2,46.2,47.7,46.9,49.9,46.9z M50,36.7c-1.7,0-2.8,0.7-2.8,1.8c0,0.9,0.9,1.5,2.9,2.3
		c1.9-0.7,2.7-1.3,2.7-2.2C52.8,37.6,51.8,36.7,50,36.7z"/>
	<path d="M83.1,30.8c4.6,0,8.4,0.5,11.1,1.6c2.6,1.1,4.3,2.8,4.3,5.2c0,5.4-8.2,7.5-14.4,7.5c-0.7,0-1.4,0-1.8-0.1l-4.5-0.7v5.7
		c0,3.1,0.5,3.2,6.5,3.5v1H66.2v-1c5.6-0.3,5.9-0.6,5.9-3.6V35.4c0-3.3-0.7-3.3-5.9-3.6v-1H83.1z M77.8,43.1
		c0.8,0.2,2.6,0.5,4.8,0.5c4.4,0,9.8-1.2,9.8-5.9c0-4-4.7-5.7-10.2-5.7c-1.9,0-3.3,0.2-3.7,0.4c-0.5,0.3-0.7,0.7-0.7,1.7V43.1z"/>
	<g>
		<path d="M7.3,61.1c2.8,0,4.5,0.3,5.7,1.1c1,0.6,1.7,1.4,1.7,2.6c0,1.4-0.9,2.6-2.5,3.3c-1.5,0.7-3.4,1-5.8,1H1.8v-0.3
			c1.7-0.1,1.8-0.2,1.8-1.2v-4.9c0-1.1-0.2-1.1-1.8-1.2v-0.3H7.3z M5.3,67.4c0,0.9,0.6,1.2,2.1,1.2c3.5,0,5.3-1.5,5.3-3.6
			c0-1.3-0.7-2.3-2.3-2.9c-0.9-0.4-2-0.5-3.4-0.5c-0.9,0-1.4,0.1-1.5,0.2c-0.2,0.1-0.3,0.2-0.3,0.7V67.4z"/>
		<path d="M26.7,67.1c-0.1,0.3-0.6,1.6-0.8,1.9h-9.5v-0.3c1.8-0.1,2-0.2,2-1.2v-4.8c0-1.1-0.2-1.1-1.7-1.2v-0.3h6c1.8,0,2.6,0,2.8,0
			c0,0.3,0.1,1.2,0.2,1.9L25.1,63c-0.2-0.4-0.4-0.7-0.6-0.9c-0.3-0.4-0.8-0.5-1.9-0.5h-1.9c-0.6,0-0.6,0-0.6,0.4v2.7h2.2
			c1.5,0,1.6-0.2,1.8-1h0.6v2.5H24c-0.3-0.9-0.4-1-1.8-1H20v2.4c0,0.9,0.4,0.9,1.4,0.9h1.8c1.2,0,1.4-0.1,1.8-0.4
			c0.4-0.3,0.8-0.8,1.1-1.1L26.7,67.1z"/>
		<path d="M33.2,61.1c1.4,0,2.5,0.2,3.3,0.5c0.8,0.4,1.3,0.9,1.3,1.7c0,1.8-2.5,2.5-4.3,2.5c-0.2,0-0.4,0-0.5,0l-1.4-0.2v1.9
			c0,1,0.1,1.1,1.9,1.2V69h-5.4v-0.3c1.7-0.1,1.8-0.2,1.8-1.2v-4.9c0-1.1-0.2-1.1-1.8-1.2v-0.3H33.2z M31.6,65.2
			c0.2,0.1,0.8,0.2,1.4,0.2c1.3,0,2.9-0.4,2.9-2c0-1.3-1.4-1.9-3.1-1.9c-0.6,0-1,0.1-1.1,0.1c-0.2,0.1-0.2,0.2-0.2,0.6V65.2z"/>
		<path d="M46.5,60.9c3.4,0,6.4,1.6,6.4,4c0,2.6-2.9,4.3-6.5,4.3c-3.8,0-6.5-1.8-6.5-4.1C39.8,62.9,42.3,60.9,46.5,60.9z M46.1,61.4
			c-2.2,0-4.2,1.1-4.2,3.4c0,2.3,2,4,4.8,4c2.4,0,4.2-1.1,4.2-3.5C50.8,62.7,48.6,61.4,46.1,61.4z"/>
		<path d="M66.3,69.1c-0.3,0-0.5,0-0.7,0c-1.4-0.1-2.2-0.3-3.1-1.1c-0.7-0.6-1.4-1.4-2.1-2c-0.4-0.4-0.6-0.5-1.6-0.5h-0.7v1.9
			c0,1,0.2,1.1,1.8,1.2V69h-5.2v-0.3c1.6-0.1,1.8-0.2,1.8-1.2v-4.9c0-1-0.2-1.1-1.8-1.2v-0.3h5c1.4,0,2.4,0.1,3.1,0.4
			c0.8,0.3,1.3,0.9,1.3,1.6c0,1.1-1.1,1.7-2.5,2.1c0.4,0.4,1.2,1.2,1.8,1.7c0.7,0.6,1.1,1,1.5,1.3c0.5,0.4,1,0.5,1.4,0.6L66.3,69.1z
			 M59.1,65.2c1,0,1.7-0.1,2.2-0.4c0.8-0.4,1.1-0.8,1.1-1.5c0-1.3-1.4-1.8-2.9-1.8c-0.6,0-0.9,0-1,0.1c-0.2,0.1-0.2,0.2-0.2,0.5v3
			H59.1z"/>
		<path d="M76.9,63c-0.2-0.4-0.4-0.8-0.6-1c-0.3-0.3-0.5-0.4-1.6-0.4h-2v6c0,1,0.2,1.1,2,1.2V69H69v-0.3c1.8-0.1,2-0.2,2-1.2v-6
			h-1.8c-1.1,0-1.4,0.1-1.7,0.4c-0.2,0.2-0.4,0.5-0.6,1h-0.6c0.1-0.7,0.2-1.5,0.3-2.2H67c0.3,0.3,0.5,0.3,1.1,0.3h7.8
			c0.5,0,0.7,0,1-0.3h0.5c0,0.6,0.1,1.5,0.2,2.2L76.9,63z"/>
		<path d="M89.3,67.1c-0.1,0.3-0.6,1.6-0.8,1.9h-9.5v-0.3c1.8-0.1,2-0.2,2-1.2v-4.8c0-1.1-0.2-1.1-1.7-1.2v-0.3h6c1.8,0,2.6,0,2.8,0
			c0,0.3,0.1,1.2,0.2,1.9L87.6,63c-0.2-0.4-0.4-0.7-0.6-0.9c-0.3-0.4-0.8-0.5-1.9-0.5h-1.9c-0.6,0-0.6,0-0.6,0.4v2.7h2.2
			c1.5,0,1.6-0.2,1.8-1h0.6v2.5h-0.6c-0.3-0.9-0.4-1-1.8-1h-2.2v2.4c0,0.9,0.4,0.9,1.4,0.9h1.8c1.2,0,1.4-0.1,1.8-0.4
			c0.4-0.3,0.8-0.8,1.1-1.1L89.3,67.1z"/>
		<path d="M97.4,62.9c-0.3-0.8-0.9-1.6-2.7-1.6c-1.5,0-2.1,0.7-2.1,1.3c0,0.8,0.9,1.3,2.5,1.8c2.4,0.8,3.4,1.3,3.4,2.5
			c0,1.3-1.8,2.3-4.3,2.3c-1.2,0-2.2-0.2-3-0.4c-0.2-0.3-0.4-1.2-0.5-1.8l0.6-0.1c0.4,0.8,1.3,1.9,3.3,1.9c1.4,0,2.3-0.6,2.3-1.4
			c0-0.9-0.8-1.3-2.5-1.9c-2.1-0.7-3.2-1.3-3.2-2.4c0-1.1,1.5-2.1,4-2.1c1.1,0,2.2,0.2,2.6,0.2c0.1,0.4,0.2,0.9,0.3,1.7L97.4,62.9z"
			/>
	</g>
	<line class="st0" x1="1.5" y1="57.6" x2="98.5" y2="57.8"/>
</g>
</svg>
