<?xml version="1.0" encoding="utf-8"?>
<!-- Generator: Adobe Illustrator 26.3.0, SVG Export Plug-In . SVG Version: 6.00 Build 0)  -->
<svg version="1.1" id="Layer_1" xmlns="http://www.w3.org/2000/svg" xmlns:xlink="http://www.w3.org/1999/xlink" x="0px" y="0px"
	 viewBox="0 0 300 300" style="enable-background:new 0 0 300 300;" xml:space="preserve" fill="#666">
<g>
	<path d="M193.7,80.3c-0.8,1.2-1.8,2.8-2.9,4.3c-0.5,0.7-1.2,1.4-1.8,2c-1.8,1.6-2.6,1.4-3.6-0.9c-0.5,0.2-0.9,0.5-1.4,0.7
		c-0.4,0.2-0.9,0.4-1.3,0.6c-1.2-1.1-1.5-2.4-0.7-3.7c0.4-0.7,1.5-1.3,2.3-1.3c0.7,0.1,1.4,1.1,2.2,1.8c1.2-0.6,1.4-1.3,0.4-2.6
		c-2.3-2.9-2.1-3.4,0.6-6.1c5.8-5.9,6.8-13.8,1.5-20.4c-2.6-3.1-6.1-3.5-9.9-3.6c0.4,1.9,1,3.7,1,5.4c0,3.1-0.1,6.3-0.5,9.4
		c-0.6,3.9-1.3,7.8,0,11.9c-0.9,0.3-1.8,0.5-2.6,0.8c-1,0.4-2.3,0.4-2.2,2.1c0,0.4-0.7,0.8-1.1,1.1c-0.4,0.3-0.7,0.6-1.4,1.2
		c4-0.5,4-0.5,5.3,2.1c-2.2,2.5-2.2,2.5-5.5,0.9c0.5,1.9,2.2,3.6,4.8,3.5c2,0,3.9-1,6-1.6c1.9,3.1,1.9,3.1,7.2,1.8
		c-1.8,4.3-3.7,8.7-5.5,13.1c-0.4,1-1,1.3-2.1,1.3c-10.2-0.2-20.3-0.3-30.5-0.5c-8.1-0.2-16.2-0.4-24.3-0.6c-3.2-0.1-6.3,0-9.5,0.1
		c-1,0-1.5-0.2-1.9-1.2c-1.7-4.4-3.5-8.7-5.2-12.8c4.4,0.9,4.9,0.8,6.8-2.7c1.9,1.8,4,3.2,6.8,2.4c1.7-0.5,3-1.4,4-3.3
		c-2.4,1.6-4.5,2-5.6-1.1c0.6-3.1,2.5-3,5-1.7c-1.9-2.8-3.9-5.1-7.5-5.3c1.7-5.2,0.3-10.1,0-15c-0.2-3.3,0.6-6.7,1-10.1
		c0.1-0.6,0.3-1.1,0.6-2c-3.9,0.1-7.5,0.4-10.3,3.5c-5.2,5.8-4.7,15.6,1.2,20.7c2.4,2.1,2.5,3.1,0.4,5.5c-1.3,1.5-1,2.4,1,3.3
		c0.7-0.9,0.6-3,2.5-2.4c0.8,0.2,1.5,0.9,1.9,1.6c0.7,1.3,0.1,2.4-1,3.5c-1-0.6-1.9-1.2-2.9-1.7c-0.1,0.1-0.3,0.1-0.3,0.2
		c-0.8,2.6-1.9,3-3.7,0.9c-1.4-1.6-2.5-3.6-3.7-5.4c-0.3-0.5-0.6-1-1.1-1.8c-0.8,1.5-1.5,3.1-3.2,2.4c-0.8-0.3-1.5-1.6-1.7-2.5
		c-0.3-1.8,0.6-3.1,2.6-3.7c-0.3-0.6-0.5-1.1-0.8-1.6c-2,1.2-3.3,1.1-4.2-0.3c-1-1.7-0.3-3.7,1.5-4.8c0.3-0.2,0.7-0.7,0.7-1
		c-0.1-0.4-0.6-0.9-0.9-0.9c-1.9-0.2-2.5-1.4-2.5-3c0-1.6,0.6-2.8,2.4-3.1c1-0.2,1.2-1.5,0.2-2.3c-1.4-1.2-1.6-2.7-0.9-4.1
		c0.4-0.7,1.5-1.5,2.3-1.6c2.2-0.2,2.3-0.2,1.3-2.3c-0.4-0.8-0.5-1.9-0.3-2.8c0.6-2.4,2.5-2.6,4.8-0.4c1.1-0.5,1.6-1.1,0.9-2.4
		c-0.3-0.5-0.4-1.2-0.4-1.8c0.1-1.4,0.6-2.6,2.1-2.7c1.5-0.1,2.3,0.9,2.6,2.3c0.1,0.4,0.2,0.8,0.3,1.4c0.6-0.1,1.1-0.3,1.6-0.4
		c0-2.4-1.3-5.4,2.8-5.3c1.5,0,1.9,1.6,1.7,4.8c0.9,0.1,1.7,0.1,2.7,0.2c-0.2-1.9-0.7-3.9,1.4-4.8c0.6-0.2,1.7,0,2.1,0.4
		c1.6,1.5,1.1,3.3,0,5.5c1.1,0,2,0.3,2.6,0c4.4-2.2,9.1-2.6,13.9-2.1c2.6,0.3,3.4-0.4,3.4-2.9c0-2.1,0.6-4.2,2.3-5.3
		c2.2-1.4,1.9-3.2,1.7-5.4c-1.2,0-2.3,0-3.6,0c0-1.6,0-2.9,0-4.5c1.2-0.1,2.3-0.2,3.7-0.3c0-1.5,0-2.9,0-4.4c1.2,0,2.3,0,3.5,0
		c0,1.4,0,2.8,0,4.3c1.3,0.1,2.4,0.2,3.7,0.3c0,1.4,0,2.8,0,4.4c-1.2,0-2.2,0-3.6,0c0.1,2.1-0.7,4,1.4,5.6c1.9,1.4,2.3,3.8,2,6.2
		c-0.1,1.2,0.3,1.7,1.4,1.8c0.8,0.1,1.6,0.2,2.3,0.1c4.6-0.2,9.1,0.3,13.3,2.5c0.7,0.4,1.7,0.1,2.8,0.1c-0.6-2-1-3.8,0.6-5
		c0.5-0.4,1.6-0.5,2.2-0.2c1.9,0.8,1.6,2.5,1.4,4.2c0.7,0,1.3,0,2,0c0-0.7,0-1.3,0-1.9c0.1-1.8,1-2.9,2.4-2.9c1.3,0,2.2,1.1,2.3,2.8
		c0,0.4,0,0.9-0.2,1.3c-0.4,1.3,0.1,1.8,1.4,1.7c1.1-3.1,2.1-4,3.6-3.2c1.6,0.8,1.8,3,0.5,5.6c0.2,0.2,0.4,0.5,0.7,0.8
		c0.2,0.2,0.5,0.3,0.7,0.5c2.1-2,3.8-2.1,4.5-0.2c0.3,1,0,2.3-0.1,3.5c-0.1,0.6-0.3,1.2-0.5,1.9c0.6,0.1,1.2,0.1,1.7,0.4
		c0.8,0.3,1.8,0.7,2.2,1.3c0.8,1.3,0.6,2.8-0.5,4.1c-1.6,1.8-1.5,1.6,0.5,2.9c0.8,0.6,1.4,2,1.5,3c0.1,1.3-0.6,2.4-2.2,2.8
		c-0.5,0.1-1,0.6-1.5,1c0.4,0.4,0.7,0.8,1.2,1.1c1.4,0.9,1.9,3,1,4.5c-0.8,1.4-2,1.5-4.3,0.3c-0.2,0.5-0.4,0.9-0.6,1.5
		c2,0.7,2.9,2.1,2.5,4c-0.2,0.8-1.2,2.1-1.8,2.1C196.2,81.8,195.1,81,193.7,80.3z M126.9,50.9c0.9,0.6,2.1,1.1,2.7-0.1
		c0.4-0.9,0.6-2.2,0.2-3.2c-0.5-1.5-2.3-1.5-2.9,0C126.6,48.6,127,49.8,126.9,50.9c-0.8,0.1-1.8-0.2-2.4,0.1c-0.5,0.4-1,1.5-0.8,2.2
		c0.2,0.8,1,1.5,1.6,2.3c-0.4-0.1-0.7-0.2-1.1-0.2c-1.2,0.1-2.1,1.4-2,2.8c0.1,1.2,0.7,2.2,2.1,2c1.4-0.2,1.9-1.3,1.8-2.5
		c-0.1-0.7-0.6-1.4-0.9-2.1C127.6,54.2,127.9,53.5,126.9,50.9z M175.8,56.1c0.3-0.4,0.9-0.8,0.9-1.3c0-1-0.1-2.1-0.4-3
		c-0.1-0.3-1.6-0.6-1.8-0.4c-0.5,0.8-1.1,1.8-1,2.6C173.5,55.4,174.5,56.1,175.8,56.1c-0.3,0.3-1,0.7-1,1.1c-0.1,1.1,0,2.2,0.3,3.2
		c0.1,0.3,1.6,0.6,1.8,0.4c0.6-0.8,1.1-1.8,1.2-2.7C178.2,56.7,177.1,56,175.8,56.1z M171.1,82.4c-0.3-0.3-0.7-0.7-1.1-1
		c-1.6-1.3-3.3-2.7-5-4c-1.2-0.9-1.2-1.7-0.4-2.9c2.8-4.4,4.9-9.1,6-14.2c0.7-3.4,1.1-7-1.9-9.7c-2.9-2.7-6.3-4-10.2-4.3
		c-1.1-0.1-1.5,0.3-1.7,1.4c-1.6,9.3-1.5,18.6,1.4,27.9c-1.4,0.8-3.1,1.6-4.4,2.8c-1.2,1.1-1.8,2.7-2.9,4.4c3.3-1.5,3.3-1.5,5.4,1.3
		c-0.7,0.8-1.2,2.2-2.1,2.4c-0.9,0.2-2.2-0.6-3.3-0.9c-0.1,0.1-0.2,0.3-0.3,0.4c1.2,0.8,2.2,1.8,3.5,2.2c2.6,1,4.6-0.7,6.4-2.2
		c3.6,3.6,8.9,3.5,10.6-0.2c-1.5-0.1-3.2,2.1-4.5-0.4c-0.7-1.4-0.5-2.8,0.7-3.4C168.3,81.8,169.7,82.3,171.1,82.4z M129.4,85.4
		c2,2.9,5.6,3.7,8.4,2c2.1-1.3,2.2-2,0.6-3.8c-0.3-0.4-0.8-0.9-0.7-1.2c0.3-0.9,0.6-2.2,1.4-2.6c1-0.6,1.9,0.2,2.4,1.2
		c0.5,1.2,0.4,2.2-0.5,3.2c-0.3,0.4-0.5,1.2-0.3,1.5c1.1,1.5,2.6,2.7,4.6,2.6c1.9-0.1,3.5-0.9,4.7-2.9c-1.7,0.3-3.1,2.3-4.5,0.4
		c-0.8-1.1-1.1-2.2-0.2-3.5c1.4-1.9,2.7,0,3.9,0.1c-1.1-3.8-4.3-5.4-7.3-7.2c0.5-1,1.1-1.8,1.4-2.8c2.5-8.1,3.5-16.4,1.7-24.8
		c-0.3-1.2-0.8-1.6-1.9-1.3c-2.6,0.6-5.3,0.9-7.7,1.9c-4.7,2-6.2,5.3-5.5,10.3c0.9,5.7,3,10.9,5.8,15.8c0.6,1.1,0.5,1.7-0.4,2.4
		c-1.5,1.1-2.9,2.2-4.3,3.4c-0.6,0.5-1.1,1.1-1.6,1.7c3.4-0.9,3.4-0.9,5.2,1.3C133.4,86.1,133.4,86.1,129.4,85.4z M159.1,97.1
		c0.7,1.7,1.8,2.9,3.5,2.4c0.9-0.3,1.8-1.4,2-2.2c0.1-0.7-0.7-2-1.4-2.4c-1.8-0.9-3.1,0.3-4,1.8c-0.7-0.3-1.4-0.5-2.1-0.9
		c-4.6-2.6-9.1-3-13.9-0.4c-1.3,0.7-2.6,1.1-3.9-0.6c-0.8-1.2-2.9-0.9-3.8,0.4c-0.8,1.1-0.8,2.3,0.3,3.2c1.3,1.1,2.8,1.1,3.9-0.1
		c0.4-0.4,0.6-0.9,1-1.4c2.5,1.1,4.9,2.1,7.3,3.3c1.3,0.6,2.3,0.6,3.6,0.1C154,99.1,156.5,98.2,159.1,97.1z M186.1,98.1
		c-3.5-1.5-6.5-2.8-9.5-4c-0.2-0.1-0.5-0.2-0.7-0.1c-3.4,0.8-6.9,1.7-10.3,2.6c0,0.2,0,0.4,0,0.5c3.2,1.5,6.3,3,9.5,4.4
		c0.2,0.1,0.6,0.1,0.9,0C179.1,100.4,182.4,99.4,186.1,98.1z M114.9,97c2.3,0.9,4.3,1.5,6.2,2.4c2.8,1.3,5.4,1.3,8.1-0.3
		c1.4-0.8,3-1.3,4.5-2c0.3-0.1,0.6-0.5,1-0.8c-2.9-1-5.6-1.9-8.3-2.7c-0.5-0.2-1.1-0.3-1.6-0.1C121.6,94.6,118.4,95.8,114.9,97z
		 M150.1,61.1c-1.5,1.6-1.7,3-0.7,4.1c0.7,0.8,1.5,0.8,2.2,0.1c1-0.9,0.8-2.6-0.4-4.2c1.3-1.6,1.7-3.4,0.5-4.1
		c-0.5-0.3-1.7-0.3-2.2,0C148.4,57.8,148.7,59.4,150.1,61.1z M150.8,71.2c1.7-1.4,2.1-2.9,1.1-4.1c-0.7-0.9-1.5-0.9-2.4-0.2
		c-1.1,1-0.8,2.7,0.7,4.3c-1.7,1.4-2.2,2.9-1,4c0.4,0.4,1.7,0.5,2.1,0.2C152.7,74.4,152.4,72.7,150.8,71.2z M172.8,72.6
		c-1.4,0-2.4,1.2-2.4,2.8c0,1.7,0.9,2.8,2.3,2.8c1.4,0,2.4-1,2.4-2.5C175.2,74,174.1,72.7,172.8,72.6z M129.8,74.7
		c0-1.6-1.1-3-2.4-2.9c-1.3,0-2.3,1.3-2.3,3c0,1.5,1,2.9,2.1,3C128.4,77.8,129.8,76.2,129.8,74.7z M174.8,50
		c-0.6-1.6-1.1-2.9-2.4-2.6c-0.8,0.2-1.7,1.5-1.8,2.4c-0.2,1.1,0.6,2.5,1.9,2.2C173.4,51.9,174,50.7,174.8,50z M127.1,62.9
		c-0.7-0.6-1.4-1.8-2.2-1.8c-1.3-0.1-2,1-2,2.3c0,1.3,0.6,2.4,2,2.4C126.3,65.7,126.6,64.4,127.1,62.9z M176.4,68.8
		c-0.5-0.4-1.1-1.5-1.9-1.6c-1.3-0.1-1.9,1.1-1.9,2.4c0,1.2,0.5,2.3,1.9,2.3C175.8,71.8,176.3,70.6,176.4,68.8z M127.7,68.7
		c-0.1-1.3-0.6-2.3-1.9-2.3c-1.5,0-1.9,1.2-1.9,2.4c0,1.2,0.4,2.3,1.9,2.2C127.3,70.9,127.7,69.9,127.7,68.7z M172.9,63.8
		c1.1,1.2,1.7,2.4,2.5,2.7c1.2,0.3,1.9-0.9,2-2.1c0.1-1.3-0.3-2.5-1.7-2.5C174.9,61.9,174.1,62.9,172.9,63.8z M153.2,53.5
		c-1.1-1-1.8-1.6-2.5-2.2c-0.6,0.8-1.7,1.5-1.7,2.4c0,0.7,1.1,1.5,1.7,2.2C151.4,55.1,152.1,54.5,153.2,53.5z M148.3,48.3
		c1.1,1,1.7,2.1,2.5,2.2c1.3,0.1,1.8-1,1.8-2.2c0-1.1-0.3-2.3-1.6-2.1C150.1,46.3,149.4,47.4,148.3,48.3z M167.9,44.8
		c-1-0.8-1.5-1.3-2.1-1.8c-0.5,0.6-1.4,1.2-1.4,1.9c-0.1,0.5,0.9,1.7,1.3,1.6C166.3,46.5,166.9,45.6,167.9,44.8z M133.2,44.3
		c0.9,0.8,1.5,1.7,2.1,1.8c0.4,0.1,1.4-1,1.4-1.6c-0.1-0.7-0.9-1.3-1.4-1.9C134.7,43,134.1,43.5,133.2,44.3z M133.8,46.3
		c-0.9-0.8-1.5-1.3-2-1.8c-0.5,0.5-1.3,1.1-1.3,1.6c0,0.6,0.8,1.2,1.2,1.9C132.3,47.6,132.9,47.1,133.8,46.3z M171.1,46.8
		c-0.9-0.8-1.4-1.3-2-1.7c-0.4,0.6-1.2,1.2-1.2,1.9c0,0.6,0.8,1.2,1.3,1.7C169.8,48.1,170.3,47.6,171.1,46.8z M162.2,46.1
		c0.6-1,1.2-1.6,1.2-2c0-0.5-0.7-0.9-1.1-1.3c-0.4,0.4-1,0.8-1,1.2C161.2,44.5,161.7,45,162.2,46.1z M138.8,41.8
		c-0.5,1-1.1,1.5-1,1.9c0.1,0.5,0.7,0.9,1.1,1.3c0.3-0.5,0.9-1,1-1.5C139.8,43.2,139.3,42.7,138.8,41.8z M142,42.3
		c-0.5,0.9-1,1.3-0.9,1.7c0,0.4,0.5,0.8,0.8,1.2c0.3-0.4,0.8-0.7,0.9-1.1C142.8,43.7,142.4,43.2,142,42.3z M160.7,44.8
		c-0.2-0.2-0.3-0.5-0.5-0.7c-0.4-0.3-0.8-0.6-1.2-0.8c-0.3,0.4-0.8,0.8-0.8,1.2c0,0.3,0.6,0.9,0.9,0.9
		C159.7,45.4,160.2,45,160.7,44.8z"/>
	<path d="M260.8,168c0,0.6,0,1.3,0,1.9c0,9.5,0,19,0,28.5c0,1.8-0.5,2.3-2.3,2.2c-2.8-0.1-5.7,0-8.7,0c0-17.7,0-35.2,0-53
		c3.1,0,6.3-0.1,9.4,0.1c0.5,0,1,0.8,1.4,1.3c7.8,10,15.6,19.9,23.4,29.9c0.4,0.5,0.8,1,1.6,1.3c0-10.7,0-21.4,0-32.5
		c1.5,0,2.7,0,4,0c1.9,0,3.8,0,5.7,0c1,0,1.5,0.3,1.4,1.4c0,0.4,0,0.9,0,1.3c0,15.9,0,31.9,0,47.8c0,2.6,0,2.6-2.5,2.6
		c-2.5,0-5.3,0.6-7.4-0.4c-2-1-3.2-3.6-4.7-5.5c-6.6-8.4-13.1-16.8-19.7-25.2c-0.4-0.5-0.9-1.1-1.3-1.6
		C261.1,167.9,261,167.9,260.8,168z"/>
	<path d="M129.3,200.3c0-17.7,0-35.2,0-52.9c0.8,0,1.5,0,2.2,0c6.7,0,13.4,0,20.1,0c3.6,0,7,0.8,10.1,2.6c8.1,4.6,9.4,16.7,0.3,21.7
		c-0.2,0.1-0.4,0.3-0.7,0.6c0.5,0.3,0.9,0.5,1.3,0.7c9.9,4.4,11.3,17.2,2.6,23.7c-3.3,2.5-7.2,3.7-11.2,3.7c-8,0.1-15.9,0-23.9,0
		C129.9,200.5,129.7,200.4,129.3,200.3z M140.3,190.8c4.7,0,9.1,0.2,13.5-0.1c3.5-0.2,5.7-3,5.7-6.4c0-3.6-2.1-6.5-5.6-6.7
		c-4.5-0.3-8.9-0.1-13.5-0.1c-0.1,0.4-0.1,0.7-0.1,1C140.3,182.5,140.3,186.5,140.3,190.8z M140.4,167.8c4.1,0,8,0.2,12-0.1
		c2.8-0.2,4.7-2.8,4.6-5.4c-0.1-2.8-2.3-5.1-5.3-5.2c-2.2-0.1-4.5,0-6.7,0c-1.5,0-3,0-4.5,0C140.4,160.7,140.4,164.1,140.4,167.8z"
		/>
	<path d="M80.4,182.9c0,3.3,0,6.4,0,9.5c0,2.3,0,4.5,0,6.8c0,0.9-0.3,1.3-1.3,1.3c-3.2,0-6.3,0-9.6,0c0-17.7,0-35.2,0-52.9
		c0.4,0,0.9-0.2,1.3-0.2c7.5,0,15-0.1,22.5,0c9,0.1,15.9,5.4,17.4,13.4c1.6,8.1-1.1,16.1-8.2,19.7c-0.1,0-0.1,0.2-0.3,0.5
		c3.5,6.3,7,12.7,10.8,19.4c-4.1,0-7.8,0-11.5-0.1c-0.5,0-1-0.7-1.3-1.3c-2.7-4.9-5.4-9.8-8-14.8c-0.6-1.1-1.2-1.5-2.4-1.5
		C86.7,183,83.7,182.9,80.4,182.9z M80.5,172.6c4.2,0,8.3,0.1,12.3,0c3.7-0.1,6.5-2.9,6.8-6.5c0.3-4.1-1.9-7.8-5.6-8.1
		c-4.4-0.4-8.9-0.1-13.5-0.1C80.5,162.8,80.5,167.5,80.5,172.6z"/>
	<path d="M193.7,249.5c2.5-2.7,5-5.5,7.4-8.2c3.9-4.3,7.8-8.7,11.8-13c0.6-0.7,1.7-1.1,2.6-1.2c3.7-0.1,7.5-0.1,11.6-0.1
		c-0.6,0.7-0.9,1.1-1.3,1.6c-5.6,6.3-11.2,12.6-16.9,18.9c-1,1.1-1.1,1.8-0.2,3.1c6.3,9.2,12.6,18.4,18.8,27.6
		c0.4,0.5,0.7,1.1,1.2,1.9c-4.3,0-8.2,0-12.1-0.1c-0.5,0-1.2-0.7-1.6-1.3c-4.5-6.6-9-13.1-13.5-19.7c-0.4-0.5-0.8-1.1-1.3-1.8
		c-2.3,2.4-4.5,4.7-6.6,7c-0.3,0.4-0.3,1.1-0.3,1.7c0,4,0,7.9,0,11.9c0,0.7,0,1.3,0,2.1c-3.7,0-7.3,0-11,0c0-17.6,0-35.2,0-52.8
		c3.6,0,7.1,0,10.9,0c0,7.4,0,14.8,0,22.1C193.4,249.3,193.6,249.4,193.7,249.5z"/>
	<path d="M72.7,227c-6.2,6.9-12,13.5-18,20c-1.4,1.5-1.4,2.5-0.2,4.1c6.2,9,12.4,18.1,18.5,27.1c0.3,0.5,0.6,1,1.1,1.8
		c-4.3,0-8.3,0-12.2-0.1c-0.5,0-1.1-0.7-1.4-1.2c-4.5-6.6-9-13.1-13.5-19.7c-0.4-0.5-0.8-1.1-1.4-1.9c-2.3,2.5-4.5,4.8-6.6,7.1
		c-0.3,0.4-0.3,1.2-0.3,1.7c0,4.6,0,9.1,0,13.8c-3.7,0-7.3,0-10.9,0c0-17.6,0-35.1,0-52.9c3.4,0,6.7,0,10,0.1c0.3,0,0.9,1,0.9,1.5
		c0.1,5.9,0,11.8,0,17.7c0,1,0,1.9,0,3.5c0.8-0.8,1.2-1.2,1.6-1.6c5.9-6.6,11.9-13.2,17.8-19.8c0.9-1,1.8-1.4,3.1-1.4
		C65,227.1,68.7,227,72.7,227z"/>
	<path d="M235.4,200.5c-3.9,0-7.5,0-11.1-0.1c-0.4,0-1-0.8-1.2-1.3c-1.2-3-2.3-6-3.4-9c-0.4-1.2-1-1.7-2.3-1.7
		c-5.8,0.1-11.7,0.1-17.5,0c-1.2,0-1.7,0.4-2.1,1.5c-1.1,3.1-2.3,6.1-3.4,9.2c-0.4,1-0.9,1.4-2,1.4c-3.3-0.1-6.7,0-10.3,0
		c0.3-0.8,0.4-1.4,0.6-1.9c6.3-16.4,12.7-32.9,18.9-49.3c0.5-1.3,1.1-1.9,2.6-1.8c2.9,0.2,5.7,0.2,8.6,0c1.7-0.1,2.4,0.5,3,2
		c5,13.1,10,26.2,15.1,39.3C232.4,192.5,233.8,196.3,235.4,200.5z M215.3,178.3c-2.2-6-4.3-11.8-6.3-17.5c-0.2,0-0.4,0-0.6,0
		c-2.1,5.8-4.2,11.5-6.3,17.5C206.5,178.3,210.7,178.3,215.3,178.3z"/>
	<path d="M3.4,147.4c3.3,0,6.6,0,9.8,0c1.4,0,1.1,1,1.1,1.8c0,7.7,0,15.4,0,23.2c0,3.2-0.2,6.5,0.4,9.6c1.2,6.4,6.1,9.7,12.8,9.2
		c5.6-0.4,10.1-4.8,10.4-10.8c0.3-8.1,0.2-16.2,0.3-24.3c0-2.4,0-4.7,0-7.1c0-1.1,0.3-1.6,1.6-1.6c2.7,0.1,5.4,0.1,8,0
		c1,0,1.4,0.4,1.4,1.4c-0.1,10.9,0.2,21.9-0.2,32.8c-0.4,10.1-8.9,18.5-19,19.7c-7.8,0.9-14.8-0.7-20.5-6.3c-3.9-3.9-6-8.8-6.1-14.2
		c-0.2-10.8-0.1-21.5-0.1-32.3C3.3,148.2,3.3,147.9,3.4,147.4z"/>
	<path d="M159,243.4c-9.6-10.6-21.3-8-27.1-2c-6.4,6.7-6.5,17.3-0.1,24.1c5.9,6.2,18,8.6,27.6-1.8c2.4,2.3,4.7,4.7,7.1,7
		c-3.7,5.9-15.8,12.7-29.1,9.6c-11.8-2.7-20.9-13.2-21.7-24.5c-1-14.2,8.1-24.9,19.5-28.6c12.8-4.1,25.5,1.4,31,8.9
		C163.7,238.6,161.4,240.9,159,243.4z"/>
	<path d="M275.6,232.8c-2.5,2.5-4.9,4.9-7.2,7.2c-1.4-0.9-2.9-2-4.5-2.8c-3-1.6-6.2-1.7-9.4-0.8c-2.3,0.6-3.8,2.2-4,4.4
		c-0.3,2.3,0.8,4,2.8,4.8c3.3,1.5,6.8,2.6,10.1,4c2.3,1,4.6,1.9,6.7,3.2c9.1,5.4,8.2,17.1,2.4,22.6c-4.8,4.6-10.6,6-17,5.7
		c-6.4-0.2-12.1-2.3-17.1-6.4c-0.6-0.5-1.2-1-1.7-1.4c2.6-2.6,5-5,7.5-7.5c2.5,2.6,5.7,4.6,9.6,5c2.5,0.2,5.1,0,7.5-0.5
		c2.3-0.5,3.7-2.3,4-4.7c0.3-2.6-1-4.2-3.2-5.2c-3.2-1.4-6.5-2.5-9.7-3.8c-2.2-0.9-4.4-1.8-6.4-2.9c-10.3-5.8-9-19.8,0.3-25
		c3.9-2.2,8.1-3,12.5-2.9C265.3,226.2,270.9,228.4,275.6,232.8z"/>
	<path d="M87.7,227.1c3.6,0,7.1,0,10.8,0c0,0.7,0.1,1.3,0.1,2c0,16.3,0,32.6,0,48.9c0,1.6-0.4,2.2-2.1,2.1c-2.9-0.1-5.8,0-8.9,0
		C87.7,262.4,87.7,244.8,87.7,227.1z"/>
</g>
</svg>
