<?xml version="1.0" encoding="utf-8"?>
<!-- Generator: Adobe Illustrator 26.3.0, SVG Export Plug-In . SVG Version: 6.00 Build 0)  -->
<svg fill="#666" version="1.1" id="Layer_1" xmlns="http://www.w3.org/2000/svg" xmlns:xlink="http://www.w3.org/1999/xlink" x="0px" y="0px"
	 viewBox="0 0 150 100" style="enable-background:new 0 0 150 100;" xml:space="preserve">
<g>
	<path d="M86.4,70.7c0-11.5,0-23,0-34.4c0.6-0.2,3.3-0.3,4.4-0.1c0.1,0.2,0.2,0.5,0.3,0.8c1.4,4.6,2.7,9.3,4.1,14
		c0.2,0.6,0.3,1.2,0.5,1.8c0.1,0.3,0.1,0.6,0.6,0.8c0-0.4,0.1-0.8,0.1-1.2c0-4.9,0-9.9,0-14.8c0-0.4,0-0.9,0.1-1.3
		c0.2,0,0.4-0.1,0.5-0.1c1.3,0,2.5,0,3.8,0c0.6,0,0.7,0.1,0.7,0.7c0,0.2,0,0.4,0,0.6c0,10.6,0,21.3,0,31.9c0,0.2,0,0.3,0,0.5
		c0,0.7-0.1,0.8-0.7,0.8c-1.2,0-2.4,0-3.7,0c-1.8-5.9-3.5-11.8-5.3-17.6c-0.1,0-0.1,0-0.2,0c-0.1,0.2-0.1,0.4-0.2,0.6
		c0,0.4-0.1,0.8-0.1,1.2c0,4.8,0,9.6,0,14.5c0,0.3,0,0.6,0,0.9c0,0.3-0.2,0.5-0.5,0.5C89.4,70.7,87.9,70.7,86.4,70.7z"/>
	<path d="M113.2,53.4c0-3.5-0.1-7.1,0-10.6c0.1-2.5,1-4.7,3.1-6.2c0.8-0.6,1.8-0.8,2.7-1c1.4-0.3,2.8,0,4.1,0.6
		c0.8,0.4,1.5,1.1,2.1,1.9c1,1.3,1.6,2.9,1.6,4.6c0,1.5,0,3.1,0,4.6c0,0.7-0.1,0.7-0.7,0.8c-1.1,0-2.3,0-3.4,0
		c-0.7,0-0.8-0.1-0.9-0.9c0-1.4,0-2.8,0-4.2c0-0.4-0.1-0.9-0.2-1.2c-0.2-0.6-0.8-0.9-1.4-0.9c-0.6,0-1.2,0.4-1.3,1
		c-0.1,0.4-0.2,0.8-0.2,1.2c0,6.8,0,13.7,0,20.5c0,0.4,0.2,0.9,0.3,1.3c0.2,0.6,0.6,0.9,1.2,0.9c0.6,0,1.1-0.3,1.4-0.8
		c0.2-0.4,0.2-0.8,0.2-1.2c0-1.3,0-2.6,0-4c0-1.2,0.1-1.3,1.2-1.3c1,0,2.1,0,3.1,0c0.6,0,0.7,0.1,0.7,0.7c0,1.8,0.2,3.6,0,5.4
		c-0.3,2.5-1.4,4.6-3.8,5.8c-2,1-5.9,1-7.9-1.4c-0.8-0.9-1.2-2-1.6-3.1c-0.3-0.9-0.4-1.8-0.3-2.7C113.3,60,113.2,56.7,113.2,53.4z"
		/>
	<path d="M104.8,36.2c1.8,0,3.4,0,5.2,0c0,0.3,0.1,0.7,0.1,1c0,10.8,0,21.6,0,32.5c0,0.2,0,0.3,0,0.5c0,0.4-0.2,0.6-0.6,0.6
		c-1.3,0-2.7,0-4,0c-0.5,0-0.6-0.1-0.7-0.7c0-0.2,0-0.4,0-0.6c0-10.7,0-21.3,0-32C104.7,37,104.8,36.6,104.8,36.2z"/>
	<path d="M82.2,70.7c-0.8,0-1.6,0-2.4,0c-0.6,0-1.2,0-1.8,0c-0.8,0-0.9-0.1-0.9-0.9c0-0.2,0-0.3,0-0.5c0-10.6,0-21.2,0-31.8
		c0-0.4,0.1-0.8,0.1-1.3c1.7,0,3.4,0,5,0C82.4,36.9,82.5,69.6,82.2,70.7z"/>
	<path d="M84.9,28.9c-0.2,0.4-0.3,0.6-0.5,0.7c-1,1.1-1.9,2.2-2.9,3.3c-0.3,0.3-0.6,0.5-1,0.5c-0.8,0-1.6,0-2.4,0
		c-0.7,0-0.8-0.3-0.5-0.9c0.6-1.1,1.3-2.2,2-3.3c0.1-0.1,0.3-0.3,0.5-0.3C81.5,28.9,83.1,28.9,84.9,28.9z"/>
	<path d="M139.7,36.2c-1.8,0-3.7,0-5.6,0c-0.1,0.2-0.1,0.3-0.1,0.4c-1.8,11.3-3.5,22.6-5.3,33.9c0,0,0,0.1,0,0.1c0,0,0,0,0.1,0.1
		c1.5,0,3,0,4.6,0c0.2-1.1,0.4-2.1,0.5-3.2c0.2-1.1,0.4-2.2,0.5-3.3c0.1-0.4,0.2-0.7,0.6-0.7c1.3,0,2.7,0,4.1,0
		c0.5,2.4,1,4.8,1.5,7.2c1.5,0,2.9,0,4.4,0C145.1,69.4,140.2,37.6,139.7,36.2z M138.5,58.1c-1.1,0-2.2,0-3.3,0
		c-0.1-0.7,1.2-9.8,1.6-10.5C137.1,48.2,138.6,57.1,138.5,58.1z"/>
	<g>
		<path d="M57.6,42.5l-0.2,0c-0.1,0.2-0.1,0.4-0.1,0.7c0,0.5,0.2,0.7,0.5,0.7h0c0.3,0,0.5-0.2,0.5-0.6C58.3,42.8,58,42.5,57.6,42.5z
			"/>
		<path d="M57.1,46.7L57.1,46.7c-0.6,0-1.1,0.4-1.1,0.9c0,0.5,0.4,0.9,1,0.9h0c0.6,0,1-0.4,1-0.9C58.1,47.1,57.7,46.7,57.1,46.7z"/>
		<path d="M55.9,56.4c0,0.4,0.3,0.7,0.8,0.8l0-1.6C56.2,55.6,55.9,55.9,55.9,56.4z"/>
		<path d="M74.8,36.1c-1.3,0-2.6,0-3.8,0c-0.8,0-0.8,0-0.9,0.9c-0.3,2.3-0.6,4.7-0.9,7c-0.4,3.1-0.7,6.2-1,9.3
			C68,54,68,54.7,67.9,55.5c0,0.3-0.1,0.5-0.5,0.5c-0.3,0-0.4-0.2-0.5-0.5c0-0.1,0-0.2,0-0.3c-0.2-2-0.5-4.1-0.8-6.1
			c-0.5-3.2-1-6.5-1.5-9.7c-0.2-1-0.3-2.1-0.5-3.2c-0.5,0-0.8,0-1.1,0c-3.5,0-7.1,0.1-10.6,0c-1.4,0-2.6,0.3-3.8,0.8
			c-3.8,1.7-6.7,4.4-8.7,8c-0.2,0.4-0.5,0.8-0.9,1c-0.5,0.4-1.2,0.4-1.8,0.4c-8.2,0-16.4,0-24.5,0c-0.1,0-0.3,0-0.4,0
			c-0.6,0-0.8-0.1-0.9-0.8c-0.1-0.6-0.2-0.8-0.9-0.8c-0.9,0-1.7,0-2.6,0c-0.7,0-0.8,0.1-0.9,0.8c-0.1,0.5-0.3,0.8-0.7,0.8
			c-0.4,0-0.5,0.3-0.7,0.6c-0.1,0.3-0.3,0.6-0.5,0.9c-0.1,3.3-0.2,6.6-0.1,9.9c0,0.7,0.7,1.1,0.9,1.7c0,0,0.2,0.1,0.2,0.1
			c0.6,0,0.9,0.4,0.9,1c0,0.5,0.3,0.7,0.8,0.7c0.9,0,1.8,0,2.8,0c0.5,0,0.7-0.2,0.8-0.7c0.2-0.9,0.2-1,1.1-1c8.3,0,16.6,0,24.9,0
			c1.2,0,2,0.5,2.6,1.6c0.7,1.2,1.4,2.3,2.3,3.3c1.9,2.3,4.4,4,7.3,5c1.6,0.6,3.3,1,5,1c4.6,0.1,9.2,0,13.9,0c0.2,0,0.4,0,0.7-0.1
			c1-5.8,1.9-11.5,2.9-17.2C73.2,47.4,74.9,36.8,74.8,36.1z M53.8,59l0.9,0l0,1.1l-0.9,0L53.8,59z M58.8,63.4l-3.9,0l0,1.5l-1,0
			l0-4.1l1,0l0,1.5l3.9,0L58.8,63.4z M58.9,60.1l-3.7,0l0-1.1l3.7,0L58.9,60.1z M57,58.2L57,58.2c-1.1,0-2-0.8-2-1.9
			c0-1.3,1-1.8,2-1.8c0.1,0,0.2,0,0.3,0l0,2.6c0.5-0.1,0.7-0.4,0.7-0.9c0-0.4-0.1-0.6-0.4-0.9l0.5-0.6c0.4,0.4,0.7,0.9,0.7,1.5
			C59,57.4,58.2,58.2,57,58.2z M56.8,52.7l2.1,0l0,1.1l-3.8,0l0-1.1l0.5,0c-0.3-0.2-0.6-0.6-0.6-1.1c0-0.8,0.5-1.3,1.4-1.3l2.4,0
			l0,1.1l-2.1,0c-0.5,0-0.8,0.2-0.8,0.6C56.1,52.4,56.3,52.7,56.8,52.7z M57.1,49.6L57.1,49.6c-1.3,0-1.9-0.8-1.9-1.7
			c0-0.6,0.3-0.9,0.6-1.2l-1.8,0l0-1.1l5.1,0l0,1.1l-0.5,0c0.3,0.3,0.6,0.6,0.6,1.2C59,48.7,58.3,49.6,57.1,49.6z M57.9,44.9
			L57.9,44.9c-0.8,0-1.2-0.6-1.2-1.5c0-0.4,0.1-0.7,0.2-0.9l-0.1,0c-0.4,0-0.7,0.3-0.7,0.8c0,0.4,0.1,0.7,0.2,1l-0.8,0.3
			c-0.2-0.4-0.3-0.8-0.3-1.5c0-0.6,0.2-1,0.4-1.3c0.3-0.3,0.7-0.4,1.2-0.4l2.2,0l0,1l-0.4,0c0.3,0.3,0.5,0.6,0.5,1.1
			C59,44.3,58.6,44.9,57.9,44.9z"/>
	</g>
</g>
</svg>
